<?xml version="1.0" encoding="UTF-8" standalone="no"?>
<!-- Generator: Gravit.io -->
<svg xmlns="http://www.w3.org/2000/svg" xmlns:xlink="http://www.w3.org/1999/xlink" style="isolation:isolate" viewBox="0 0 441.539 100.419" width="441.539pt" height="100.419pt"><defs><clipPath id="_clipPath_WuqdUKqjvrhLoxE3aAFQMeTelEvxaPRd"><rect width="441.539" height="100.419"/></clipPath></defs><g clip-path="url(#_clipPath_WuqdUKqjvrhLoxE3aAFQMeTelEvxaPRd)"><clipPath id="_clipPath_Daof91yrnC3i1PBucq8UMs0s7VYLur9T"><path d=" M 0 0 L 0 100.419 L 441.539 100.419 L 441.539 0 L 0 0 Z " fill="rgb(255,255,255)"/></clipPath><g clip-path="url(#_clipPath_Daof91yrnC3i1PBucq8UMs0s7VYLur9T)"><path d=" M 36.199 18.243 C 38.129 19.301 39.862 20.222 41.566 21.193 C 42.687 21.832 43.794 24.93 43.278 26.12 C 41.407 30.439 39.486 34.736 37.582 39.04 C 34.896 45.112 32.211 51.184 29.52 57.253 C 27.407 62.016 25.289 66.777 23.164 71.535 C 21.297 75.717 19.381 79.877 17.583 84.088 C 17.332 84.676 17.412 85.603 17.703 86.194 C 19.954 90.763 18.107 96.448 13.546 98.736 C 8.91 101.063 3.161 99.129 0.951 94.502 C -1.823 88.697 1.86 82.529 7 81.398 C 7.515 81.285 8.128 80.769 8.347 80.283 C 13.705 68.404 19.005 56.499 24.34 44.61 C 28.023 36.4 31.745 28.208 35.447 20.007 C 35.719 19.405 35.965 18.792 36.199 18.243 Z " fill="rgb(58,171,225)"/><path d=" M 21.734 87.706 C 20.846 86.139 20.551 84.809 21.349 83.194 C 22.946 79.96 24.298 76.605 25.84 73.342 C 26.141 72.704 26.772 72.153 27.371 71.734 C 36.186 65.57 45.006 59.413 53.869 53.32 C 55.044 52.513 55.447 51.545 55.641 50.221 C 56.302 45.706 60.336 42.319 64.892 42.327 C 68.618 42.334 72.291 44.829 73.553 48.211 C 75.004 52.098 74.076 56.057 71.068 58.679 C 68.37 61.03 65.297 61.615 61.871 60.625 C 61.479 60.512 60.888 60.627 60.546 60.863 C 53.425 65.779 46.325 70.726 39.224 75.671 C 33.708 79.512 28.196 83.358 22.678 87.196 C 22.414 87.38 22.109 87.506 21.734 87.706 Z " fill="rgb(241,109,55)"/><path d=" M 64.409 39.169 C 61.161 39.587 58.176 40.685 55.678 43.321 C 54.81 41.484 54.056 39.913 53.323 38.333 C 52.174 35.859 51.023 33.385 49.902 30.899 C 48.194 27.108 46.539 23.292 44.783 19.523 C 44.525 18.97 43.9 18.393 43.325 18.213 C 40.232 17.247 37.984 15.406 36.882 12.322 C 34.773 6.418 38.832 0.626 44.371 0.064 C 48.961 -0.401 52.433 1.677 54.192 5.935 C 54.989 7.865 55.211 10.109 54.309 11.852 C 53.074 14.237 54.023 15.989 54.932 17.963 C 58.096 24.836 61.226 31.725 64.363 38.61 C 64.41 38.713 64.385 38.849 64.409 39.169 Z " fill="rgb(42,168,88)"/><path d=" M 65.371 64.215 C 68.699 63.991 71.541 62.704 74.063 60.19 C 74.689 61.544 75.245 62.735 75.793 63.93 C 78.316 69.429 80.822 74.937 83.386 80.416 C 83.597 80.868 84.152 81.333 84.633 81.456 C 88.831 82.534 91.862 87.002 91.29 91.38 C 90.733 95.64 87.902 98.704 83.708 99.588 C 80.123 100.343 76.059 98.504 74.05 95.066 C 72.301 92.074 72.328 88.96 73.941 85.913 C 74.37 85.102 74.337 84.488 73.968 83.682 C 71.084 77.378 68.248 71.052 65.401 64.731 C 65.37 64.66 65.389 64.567 65.371 64.215 Z " fill="rgb(58,171,225)"/><path d=" M 90.339 38.271 C 90.543 41.601 87.735 44.697 84.135 44.717 C 80.463 44.737 77.651 42 77.644 38.25 C 77.637 34.793 80.512 31.975 84.032 31.95 C 87.528 31.925 90.333 34.736 90.339 38.271 Z " fill="rgb(241,109,55)"/><path d=" M 103.889 85.941 L 103.889 58.617 L 95.181 58.617 L 95.181 46.534 L 103.889 46.534 L 103.889 32.165 L 117.714 32.165 L 117.714 46.534 L 128.382 46.534 L 128.382 58.617 L 117.714 58.617 L 117.714 82.239 C 117.714 85.614 119.456 88.118 122.504 88.118 C 124.572 88.118 126.531 87.356 127.293 86.486 L 130.232 97.044 C 128.164 98.895 124.463 100.419 118.694 100.419 C 109.006 100.419 103.889 95.411 103.889 85.941 Z " fill="rgb(58,171,225)"/><path d=" M 175.731 72.77 C 175.731 64.605 170.942 57.53 162.233 57.53 C 153.634 57.53 148.844 64.605 148.844 72.77 C 148.844 81.042 153.634 88.118 162.233 88.118 C 170.942 88.118 175.731 81.042 175.731 72.77 Z  M 134.475 72.77 C 134.475 57.856 144.925 45.229 162.233 45.229 C 179.65 45.229 190.101 57.856 190.101 72.77 C 190.101 87.683 179.65 100.419 162.233 100.419 C 144.925 100.419 134.475 87.683 134.475 72.77 Z " fill="rgb(58,171,225)"/><path d=" M 265.643 99.113 L 265.643 65.911 C 265.643 61.013 263.466 57.53 257.805 57.53 C 252.906 57.53 248.879 60.795 246.919 63.625 L 246.919 99.113 L 232.985 99.113 L 232.985 65.911 C 232.985 61.013 230.809 57.53 225.148 57.53 C 220.358 57.53 216.331 60.795 214.263 63.625 L 214.263 99.113 L 200.438 99.113 L 200.438 46.534 L 214.263 46.534 L 214.263 53.283 C 216.549 50.236 223.406 45.229 231.462 45.229 C 239.19 45.229 244.198 48.821 246.049 54.699 C 249.097 50.018 256.063 45.229 264.118 45.229 C 273.807 45.229 279.576 50.345 279.576 61.121 L 279.576 99.113 L 265.643 99.113 Z " fill="rgb(58,171,225)"/><path d=" M 293.285 99.113 L 293.285 46.534 L 307.11 46.534 L 307.11 99.113 L 293.285 99.113 Z  M 291.979 32.601 C 291.979 28.03 295.681 24.437 300.144 24.437 C 304.715 24.437 308.416 28.03 308.416 32.601 C 308.416 37.173 304.715 40.874 300.144 40.874 C 295.681 40.874 291.979 37.173 291.979 32.601 Z " fill="rgb(58,171,225)"/><path d=" M 317.448 72.77 C 317.448 56.658 329.205 45.229 345.315 45.229 C 356.092 45.229 362.624 49.909 366.107 54.699 L 357.072 63.19 C 354.568 59.489 350.758 57.53 345.969 57.53 C 337.587 57.53 331.708 63.625 331.708 72.77 C 331.708 81.913 337.587 88.118 345.969 88.118 C 350.758 88.118 354.568 85.941 357.072 82.349 L 366.107 90.839 C 362.624 95.629 356.092 100.419 345.315 100.419 C 329.205 100.419 317.448 88.989 317.448 72.77 Z " fill="rgb(58,171,225)"/><path d=" M 371.98 62.864 C 371.98 39.895 389.397 25.308 410.733 25.308 C 425.755 25.308 435.226 32.928 440.669 41.528 L 427.933 48.494 C 424.558 43.378 418.354 39.024 410.733 39.024 C 397.453 39.024 387.873 49.148 387.873 62.864 C 387.873 76.579 397.453 86.703 410.733 86.703 C 417.155 86.703 423.143 83.872 426.082 81.152 L 426.082 72.443 L 406.923 72.443 L 406.923 58.945 L 441.539 58.945 L 441.539 86.812 C 434.138 95.085 423.796 100.419 410.733 100.419 C 389.397 100.419 371.98 85.723 371.98 62.864 Z " fill="rgb(241,109,55)"/></g></g></svg>